<svg width="24" height="24" viewBox="0 0 24 24" fill="none" xmlns="http://www.w3.org/2000/svg">
<path d="M7 14H17" stroke="#F97316" stroke-width="1.5" stroke-linecap="round" stroke-linejoin="round"/>
<path d="M12 14V21.25" stroke="#F97316" stroke-width="1.5" stroke-linecap="round" stroke-linejoin="round"/>
<path d="M15.909 11.184V8.18401C15.909 7.63201 15.461 7.18401 14.909 7.18401H8.909C8.357 7.18401 7.909 7.63201 7.909 8.18401V11.184" stroke="#F97316" stroke-width="1.5" stroke-linecap="round" stroke-linejoin="round"/>
<path fill-rule="evenodd" clip-rule="evenodd" d="M19 17H5C3.895 17 3 16.105 3 15V5C3 3.895 3.895 3 5 3H19C20.105 3 21 3.895 21 5V15C21 16.105 20.105 17 19 17Z" stroke="#F97316" stroke-width="1.5" stroke-linecap="round" stroke-linejoin="round"/>
<path d="M8 14L9.04 21.25" stroke="#F97316" stroke-width="1.5" stroke-linecap="round" stroke-linejoin="round"/>
<path d="M15.97 14L14.97 21.25" stroke="#F97316" stroke-width="1.5" stroke-linecap="round" stroke-linejoin="round"/>
<path d="M15.09 20.34H8.91" stroke="#F97316" stroke-width="1.5" stroke-linecap="round" stroke-linejoin="round"/>
</svg>
