{
  "accessors": [
    {
      "bufferView": 2,
      "componentType": 5126,
      "count": 7998,
      "max": [
        0.715053915977478,
        0.9686499834060669,
        1.8257266283035278
      ],
      "min": [
        -1.1476513147354126,
        -1.2999027967453003,
        -2.2448716163635254
      ],
      "type": "VEC3"
    },
    {
      "bufferView": 2,
      "byteOffset": 95976,
      "componentType": 5126,
      "count": 7998,
      "max": [
        1.0,
        1.0,
        1.0
      ],
      "min": [
        -1.0,
        -1.0,
        -1.0
      ],
      "type": "VEC3"
    },
    {
      "bufferView": 1,
      "componentType": 5126,
      "count": 7998,
      "max": [
        0.998022198677063,
        0.9983266592025757
      ],
      "min": [
        0.0016732215881347656,
        0.0016732215881347656
      ],
      "type": "VEC2"
    },
    {
      "bufferView": 0,
      "componentType": 5125,
      "count": 31116,
      "type": "SCALAR"
    },
    {
      "bufferView": 2,
      "byteOffset": 191952,
      "componentType": 5126,
      "count": 406,
      "max": [
        0.6327701807022095,
        0.9686499834060669,
        1.8257266283035278
      ],
      "min": [
        -1.065517544746399,
        -0.7310653924942017,
        0.13227665424346924
      ],
      "type": "VEC3"
    },
    {
      "bufferView": 2,
      "byteOffset": 196824,
      "componentType": 5126,
      "count": 406,
      "max": [
        0.999841570854187,
        0.9989506602287292,
        0.9999303221702576
      ],
      "min": [
        -0.9998414516448975,
        -0.9989506602287292,
        -0.9980498552322388
      ],
      "type": "VEC3"
    },
    {
      "bufferView": 1,
      "byteOffset": 63984,
      "componentType": 5126,
      "count": 406,
      "max": [
        0.994845986366272,
        0.670922577381134
      ],
      "min": [
        0.01897605136036873,
        0.0030711889266967773
      ],
      "type": "VEC2"
    },
    {
      "bufferView": 0,
      "byteOffset": 124464,
      "componentType": 5125,
      "count": 852,
      "type": "SCALAR"
    }
  ],
  "asset": {
    "extras": {
      "author": "Lukas Wüst (https://sketchfab.com/Lukas_Wuest)",
      "license": "CC-BY-4.0 (http://creativecommons.org/licenses/by/4.0/)",
      "source": "https://sketchfab.com/3d-models/larry-obrien-trophy-v01-1085f9d36e904be78cfae69f189fbc22",
      "title": "Larry_O'Brien_Trophy_V.01"
    },
    "generator": "Sketchfab-14.28.0",
    "version": "2.0"
  },
  "bufferViews": [
    {
      "buffer": 0,
      "byteLength": 127872,
      "name": "floatBufferViews",
      "target": 34963
    },
    {
      "buffer": 0,
      "byteLength": 67232,
      "byteOffset": 127872,
      "byteStride": 8,
      "name": "floatBufferViews",
      "target": 34962
    },
    {
      "buffer": 0,
      "byteLength": 201696,
      "byteOffset": 195104,
      "byteStride": 12,
      "name": "floatBufferViews",
      "target": 34962
    }
  ],
  "buffers": [
    {
      "byteLength": 396800,
      "uri": "scene.bin"
    }
  ],
  "materials": [
    {
      "doubleSided": true,
      "name": "Gold.001",
      "pbrMetallicRoughness": {
        "baseColorFactor": [
          0.7999999999999999,
          0.5537749999999998,
          0.14102699999999993,
          1.0
        ],
        "roughnessFactor": 0.0
      }
    },
    {
      "doubleSided": true,
      "name": "white.001",
      "pbrMetallicRoughness": {
        "baseColorFactor": [
          0.8,
          0.8,
          0.8,
          1.0
        ],
        "metallicFactor": 0.0,
        "roughnessFactor": 0.8211145618000169
      }
    }
  ],
  "meshes": [
    {
      "name": "Trophy_Gold.001_0",
      "primitives": [
        {
          "attributes": {
            "NORMAL": 1,
            "POSITION": 0,
            "TEXCOORD_0": 2
          },
          "indices": 3,
          "material": 0,
          "mode": 4
        }
      ]
    },
    {
      "name": "Trophy_white.001_0",
      "primitives": [
        {
          "attributes": {
            "NORMAL": 5,
            "POSITION": 4,
            "TEXCOORD_0": 6
          },
          "indices": 7,
          "material": 1,
          "mode": 4
        }
      ]
    }
  ],
  "nodes": [
    {
      "children": [
        1
      ],
      "matrix": [
        1.0,
        0.0,
        0.0,
        0.0,
        0.0,
        2.220446049250313e-16,
        -1.0,
        0.0,
        0.0,
        1.0,
        2.220446049250313e-16,
        0.0,
        0.0,
        0.0,
        0.0,
        1.0
      ],
      "name": "Sketchfab_model"
    },
    {
      "children": [
        2
      ],
      "matrix": [
        0.009999999776482582,
        0.0,
        0.0,
        0.0,
        0.0,
        0.0,
        0.009999999776482582,
        0.0,
        0.0,
        -0.009999999776482582,
        0.0,
        0.0,
        0.0,
        0.0,
        0.0,
        1.0
      ],
      "name": "10232f51faa4499fbf2e18f6a650a87c.fbx"
    },
    {
      "children": [
        3
      ],
      "name": "RootNode"
    },
    {
      "children": [
        4,
        5
      ],
      "matrix": [
        100.0,
        0.0,
        0.0,
        0.0,
        0.0,
        -1.629206793918314e-05,
        -99.99999999999868,
        0.0,
        0.0,
        99.99999999999868,
        -1.629206793918314e-05,
        0.0,
        358.9997863769531,
        227.8511505126953,
        -36.855018615722656,
        1.0
      ],
      "name": "Trophy"
    },
    {
      "mesh": 0,
      "name": "Trophy_Gold.001_0"
    },
    {
      "mesh": 1,
      "name": "Trophy_white.001_0"
    }
  ],
  "scene": 0,
  "scenes": [
    {
      "name": "Sketchfab_Scene",
      "nodes": [
        0
      ]
    }
  ]
}
